<svg width="95" height="82" viewBox="0 0 95 82" fill="none" xmlns="http://www.w3.org/2000/svg">
<path d="M3.8 1.90012C3.8 2.90012 3 3.80012 1.9 3.80012C0.8 3.80012 0 2.90012 0 1.90012C0 0.800122 0.8 0.00012207 1.9 0.00012207C2.9 0.00012207 3.8 0.800122 3.8 1.90012Z" fill="#51C14F"/>
<path d="M20.1 3.80012C21.1493 3.80012 22 2.94946 22 1.90012C22 0.850781 21.1493 0.00012207 20.1 0.00012207C19.0507 0.00012207 18.2 0.850781 18.2 1.90012C18.2 2.94946 19.0507 3.80012 20.1 3.80012Z" fill="#51C14F"/>
<path d="M40.1 1.90012C40.1 2.90012 39.3 3.80012 38.2 3.80012C37.2 3.80012 36.3 3.00012 36.3 1.90012C36.3 0.900122 37.1 0.00012207 38.2 0.00012207C39.3 0.00012207 40.1 0.800122 40.1 1.90012Z" fill="#51C14F"/>
<path d="M56.4 3.80012C57.4493 3.80012 58.3 2.94946 58.3 1.90012C58.3 0.850781 57.4493 0.00012207 56.4 0.00012207C55.3507 0.00012207 54.5 0.850781 54.5 1.90012C54.5 2.94946 55.3507 3.80012 56.4 3.80012Z" fill="#51C14F"/>
<path d="M76.5 1.90012C76.5 2.90012 75.7 3.80012 74.6 3.80012C73.6 3.80012 72.7 3.00012 72.7 1.90012C72.7 0.900122 73.5 0.00012207 74.6 0.00012207C75.6 0.00012207 76.5 0.800122 76.5 1.90012Z" fill="#51C14F"/>
<path d="M94.6 1.90012C94.6 2.90012 93.8 3.80012 92.7 3.80012C91.7 3.80012 90.8 3.00012 90.8 1.90012C90.8 0.900122 91.6 0.00012207 92.7 0.00012207C93.8 0.00012207 94.6 0.800122 94.6 1.90012Z" fill="#51C14F"/>
<path d="M3.8 17.5001C3.8 18.5001 3 19.4001 1.9 19.4001C0.9 19.4001 0 18.6001 0 17.5001C0 16.5001 0.8 15.6001 1.9 15.6001C2.9 15.6001 3.8 16.5001 3.8 17.5001Z" fill="#51C14F"/>
<path d="M20.1 19.4001C21.1493 19.4001 22 18.5495 22 17.5001C22 16.4508 21.1493 15.6001 20.1 15.6001C19.0507 15.6001 18.2 16.4508 18.2 17.5001C18.2 18.5495 19.0507 19.4001 20.1 19.4001Z" fill="#51C14F"/>
<path d="M40.1 17.5001C40.1 18.5001 39.3 19.4001 38.2 19.4001C37.2 19.4001 36.3 18.6001 36.3 17.5001C36.3 16.5001 37.1 15.6001 38.2 15.6001C39.3 15.6001 40.1 16.5001 40.1 17.5001Z" fill="#51C14F"/>
<path d="M56.4 19.4001C57.4493 19.4001 58.3 18.5495 58.3 17.5001C58.3 16.4508 57.4493 15.6001 56.4 15.6001C55.3507 15.6001 54.5 16.4508 54.5 17.5001C54.5 18.5495 55.3507 19.4001 56.4 19.4001Z" fill="#51C14F"/>
<path d="M76.5 17.5001C76.5 18.5001 75.7 19.4001 74.6 19.4001C73.6 19.4001 72.7 18.6001 72.7 17.5001C72.7 16.5001 73.5 15.6001 74.6 15.6001C75.6 15.6001 76.5 16.5001 76.5 17.5001Z" fill="#51C14F"/>
<path d="M94.6 17.5001C94.6 18.5001 93.8 19.4001 92.7 19.4001C91.7 19.4001 90.8 18.6001 90.8 17.5001C90.8 16.5001 91.6 15.6001 92.7 15.6001C93.8 15.6001 94.6 16.5001 94.6 17.5001Z" fill="#51C14F"/>
<path d="M3.8 33.2001C3.8 34.2001 3 35.1001 1.9 35.1001C0.9 35.1001 0 34.3001 0 33.2001C0 32.2001 0.8 31.3001 1.9 31.3001C2.9 31.3001 3.8 32.1001 3.8 33.2001Z" fill="#51C14F"/>
<path d="M22 33.2001C22 34.2001 21.2 35.1001 20.1 35.1001C19.1 35.1001 18.2 34.3001 18.2 33.2001C18.2 32.2001 19 31.3001 20.1 31.3001C21.1 31.3001 22 32.1001 22 33.2001Z" fill="#51C14F"/>
<path d="M40.1 33.2001C40.1 34.2001 39.3 35.1001 38.2 35.1001C37.2 35.1001 36.3 34.3001 36.3 33.2001C36.3 32.2001 37.1 31.3001 38.2 31.3001C39.3 31.3001 40.1 32.1001 40.1 33.2001Z" fill="#51C14F"/>
<path d="M58.3 33.2001C58.3 34.2001 57.5 35.1001 56.4 35.1001C55.4 35.1001 54.5 34.3001 54.5 33.2001C54.5 32.2001 55.3 31.3001 56.4 31.3001C57.5 31.3001 58.3 32.1001 58.3 33.2001Z" fill="#51C14F"/>
<path d="M76.5 33.2001C76.5 34.2001 75.7 35.1001 74.6 35.1001C73.6 35.1001 72.7 34.3001 72.7 33.2001C72.7 32.2001 73.5 31.3001 74.6 31.3001C75.6 31.3001 76.5 32.1001 76.5 33.2001Z" fill="#51C14F"/>
<path d="M94.6 33.2001C94.6 34.2001 93.8 35.1001 92.7 35.1001C91.7 35.1001 90.8 34.3001 90.8 33.2001C90.8 32.2001 91.6 31.3001 92.7 31.3001C93.8 31.3001 94.6 32.1001 94.6 33.2001Z" fill="#51C14F"/>
<path d="M3.8 48.8001C3.8 49.8001 3 50.7001 1.9 50.7001C0.9 50.7001 0 49.9001 0 48.8001C0 47.8001 0.8 46.9001 1.9 46.9001C2.9 46.9001 3.8 47.7001 3.8 48.8001Z" fill="#51C14F"/>
<path d="M22 48.8001C22 49.8001 21.2 50.7001 20.1 50.7001C19.1 50.7001 18.2 49.9001 18.2 48.8001C18.2 47.8001 19 46.9001 20.1 46.9001C21.1 46.9001 22 47.7001 22 48.8001Z" fill="#51C14F"/>
<path d="M40.1 48.8001C40.1 49.8001 39.3 50.7001 38.2 50.7001C37.2 50.7001 36.3 49.9001 36.3 48.8001C36.3 47.8001 37.1 46.9001 38.2 46.9001C39.3 46.9001 40.1 47.7001 40.1 48.8001Z" fill="#51C14F"/>
<path d="M58.3 48.8001C58.3 49.8001 57.5 50.7001 56.4 50.7001C55.4 50.7001 54.5 49.9001 54.5 48.8001C54.5 47.8001 55.3 46.9001 56.4 46.9001C57.5 46.9001 58.3 47.7001 58.3 48.8001Z" fill="#51C14F"/>
<path d="M76.5 48.8001C76.5 49.8001 75.7 50.7001 74.6 50.7001C73.6 50.7001 72.7 49.9001 72.7 48.8001C72.7 47.8001 73.5 46.9001 74.6 46.9001C75.6 46.9001 76.5 47.7001 76.5 48.8001Z" fill="#51C14F"/>
<path d="M94.6 48.8001C94.6 49.8001 93.8 50.7001 92.7 50.7001C91.7 50.7001 90.8 49.9001 90.8 48.8001C90.8 47.8001 91.6 46.9001 92.7 46.9001C93.8 46.9001 94.6 47.7001 94.6 48.8001Z" fill="#51C14F"/>
<path d="M3.8 64.4001C3.8 65.4001 3 66.3001 1.9 66.3001C0.9 66.3001 0 65.5001 0 64.4001C0 63.4001 0.8 62.5001 1.9 62.5001C2.9 62.5001 3.8 63.4001 3.8 64.4001Z" fill="#51C14F"/>
<path d="M20.1 66.3001C21.1493 66.3001 22 65.4495 22 64.4001C22 63.3508 21.1493 62.5001 20.1 62.5001C19.0507 62.5001 18.2 63.3508 18.2 64.4001C18.2 65.4495 19.0507 66.3001 20.1 66.3001Z" fill="#51C14F"/>
<path d="M40.1 64.4001C40.1 65.4001 39.3 66.3001 38.2 66.3001C37.2 66.3001 36.3 65.5001 36.3 64.4001C36.3 63.4001 37.1 62.5001 38.2 62.5001C39.3 62.5001 40.1 63.4001 40.1 64.4001Z" fill="#51C14F"/>
<path d="M56.4 66.3001C57.4493 66.3001 58.3 65.4495 58.3 64.4001C58.3 63.3508 57.4493 62.5001 56.4 62.5001C55.3507 62.5001 54.5 63.3508 54.5 64.4001C54.5 65.4495 55.3507 66.3001 56.4 66.3001Z" fill="#51C14F"/>
<path d="M76.5 64.4001C76.5 65.4001 75.7 66.3001 74.6 66.3001C73.6 66.3001 72.7 65.5001 72.7 64.4001C72.7 63.4001 73.5 62.5001 74.6 62.5001C75.6 62.5001 76.5 63.4001 76.5 64.4001Z" fill="#51C14F"/>
<path d="M94.6 64.4001C94.6 65.4001 93.8 66.3001 92.7 66.3001C91.7 66.3001 90.8 65.5001 90.8 64.4001C90.8 63.4001 91.6 62.5001 92.7 62.5001C93.8 62.5001 94.6 63.4001 94.6 64.4001Z" fill="#51C14F"/>
<path d="M3.8 80.0001C3.8 81.0001 3 81.9001 1.9 81.9001C0.9 81.9001 0 81.1001 0 80.0001C0 79.0001 0.8 78.1001 1.9 78.1001C2.9 78.1001 3.8 79.0001 3.8 80.0001Z" fill="#51C14F"/>
<path d="M22 80.0001C22 81.0001 21.2 81.9001 20.1 81.9001C19.1 81.9001 18.2 81.1001 18.2 80.0001C18.2 79.0001 19 78.1001 20.1 78.1001C21.1 78.1001 22 79.0001 22 80.0001Z" fill="#51C14F"/>
<path d="M40.1 80.0001C40.1 81.0001 39.3 81.9001 38.2 81.9001C37.2 81.9001 36.3 81.1001 36.3 80.0001C36.3 79.0001 37.1 78.1001 38.2 78.1001C39.3 78.1001 40.1 79.0001 40.1 80.0001Z" fill="#51C14F"/>
<path d="M58.3 80.0001C58.3 81.0001 57.5 81.9001 56.4 81.9001C55.4 81.9001 54.5 81.1001 54.5 80.0001C54.5 79.0001 55.3 78.1001 56.4 78.1001C57.5 78.1001 58.3 79.0001 58.3 80.0001Z" fill="#51C14F"/>
<path d="M76.5 80.0001C76.5 81.0001 75.7 81.9001 74.6 81.9001C73.6 81.9001 72.7 81.1001 72.7 80.0001C72.7 79.0001 73.5 78.1001 74.6 78.1001C75.6 78.1001 76.5 79.0001 76.5 80.0001Z" fill="#51C14F"/>
<path d="M94.6 80.0001C94.6 81.0001 93.8 81.9001 92.7 81.9001C91.7 81.9001 90.8 81.1001 90.8 80.0001C90.8 79.0001 91.6 78.1001 92.7 78.1001C93.8 78.1001 94.6 79.0001 94.6 80.0001Z" fill="#51C14F"/>
</svg>
