<svg width="172" height="1470" viewBox="0 0 172 1470" fill="none" xmlns="http://www.w3.org/2000/svg">
<path d="M3.268 1347.95L39.71 1347.95L39.71 1424.02L79.078 1424.02L79.078 1367.1L114.456 1367.1L114.456 1424.02L190 1424.02L190 1469.51L3.26799 1469.51L3.268 1347.95ZM39.71 1251.95L77.482 1251.95L77.482 1191.04L112.594 1191.04L112.594 1251.95L153.558 1251.95L153.558 1183.06L190 1183.06L190 1297.44L3.268 1297.44L3.268 1183.06L39.71 1183.06L39.71 1251.95ZM157.016 1010.69L157.016 1080.38L190 1091.55L190 1139.17L3.268 1071.6L3.268 1018.93L190 951.37L190 999.516L157.016 1010.69ZM121.904 1022.39L53.542 1045.53L121.904 1068.41L121.904 1022.39ZM3.268 769.877L39.71 769.877L39.71 819.353L190 819.353L190 864.839L39.71 864.839L39.71 914.315L3.268 914.315L3.268 769.877ZM3.268 675.76L114.988 675.76C126.16 675.76 134.761 673.012 140.79 667.514C146.819 662.017 149.834 653.948 149.834 643.308C149.834 632.668 146.819 624.511 140.79 618.836C134.761 613.162 126.16 610.324 114.988 610.324L3.268 610.324L3.26801 564.838L114.722 564.838C131.391 564.838 145.489 568.385 157.016 575.478C168.543 582.572 177.232 592.148 183.084 604.206C188.936 616.088 191.862 629.388 191.862 644.106C191.862 658.825 189.025 672.036 183.35 683.74C177.498 695.267 168.809 704.4 157.282 711.138C145.578 717.877 131.391 721.246 114.722 721.246L3.268 721.246L3.268 675.76ZM190 411.07L119.51 449.906L119.51 460.812L190 460.812L190 506.298L3.26801 506.298L3.26801 429.956C3.26801 415.237 5.83934 402.735 10.982 392.45C16.1247 381.987 23.218 374.184 32.262 369.042C41.1287 363.899 51.0593 361.328 62.054 361.328C74.4673 361.328 85.5507 364.874 95.304 371.968C105.057 378.884 111.973 389.169 116.052 402.824L190 359.732L190 411.07ZM87.324 460.812L87.324 432.616C87.324 424.281 85.2847 418.074 81.206 413.996C77.1273 409.74 71.364 407.612 63.916 407.612C56.8227 407.612 51.2367 409.74 47.158 413.996C43.0793 418.074 41.04 424.281 41.04 432.616L41.04 460.812L87.324 460.812ZM39.71 260.688L77.482 260.688L77.482 199.774L112.594 199.774L112.594 260.688L153.558 260.688L153.558 191.794L190 191.794L190 306.174L3.26801 306.174L3.26801 191.794L39.71 191.794L39.71 260.688ZM191.862 68.1C191.862 81.7547 189.645 93.9907 185.212 104.808C180.779 115.625 174.217 124.315 165.528 130.876C156.839 137.26 146.376 140.629 134.14 140.984L134.14 92.572C141.056 91.8627 146.376 89.4687 150.1 85.39C153.647 81.3113 155.42 75.9913 155.42 69.43C155.42 62.6913 153.913 57.3713 150.898 53.47C147.706 49.5687 143.361 47.618 137.864 47.618C133.253 47.618 129.441 49.214 126.426 52.406C123.411 55.4207 120.929 59.2333 118.978 63.844C117.027 68.2773 114.811 74.6613 112.328 82.996C108.604 95.0547 104.88 104.897 101.156 112.522C97.432 120.147 91.9347 126.709 84.664 132.206C77.3933 137.703 67.906 140.452 56.202 140.452C38.8233 140.452 25.2573 134.157 15.504 121.566C5.57335 108.975 0.608013 92.572 0.608014 72.356C0.608014 51.7853 5.57335 35.2047 15.504 22.614C25.2573 10.0233 38.912 3.28467 56.468 2.398L56.468 51.608C50.4387 51.9627 45.7393 54.1793 42.37 58.258C38.8233 62.3367 37.05 67.568 37.05 73.952C37.05 79.4493 38.5573 83.8827 41.572 87.252C44.4093 90.6213 48.5767 92.306 54.074 92.306C60.1033 92.306 64.8027 89.4687 68.172 83.794C71.5413 78.1193 75.1767 69.2527 79.078 57.194C83.1567 45.1353 87.058 35.382 90.782 27.934C94.506 20.3087 99.9147 13.7473 107.008 8.25C114.101 2.75267 123.234 0.0040002 134.406 0.00400034C145.046 0.00400046 154.711 2.75267 163.4 8.25001C172.089 13.57 179.005 21.3727 184.148 31.658C189.291 41.9433 191.862 54.0907 191.862 68.1Z" fill="#F8F8F8"/>
</svg>
