<svg width="61" height="91" viewBox="0 0 61 91" fill="none" xmlns="http://www.w3.org/2000/svg">
<path fill-rule="evenodd" clip-rule="evenodd" d="M29.9496 8.9524H22.902L10.9496 0.904785L9.33059 5.80955V14.6191L10.283 15.2857L10.9973 7.28574L12.7592 5.33336L22.3306 13.0476L20.3782 16.9524L17.9496 15.9524L17.1401 12.0953L12.4734 9.23812V15.2857L7.23535 26.8095L14.6639 21.6191C16.902 21.5556 22.2354 23 25.6639 29.2857C23.5369 27.5238 18.502 23.9048 15.3782 23.5238L10.9973 26.7619L10.8068 29.6667C11.9496 28.7143 14.7401 26.6191 16.7592 25.8572C15.3941 26.7461 12.2639 29.1619 10.6639 31.7143L10.6163 32.6191C11.6798 31.6667 14.3973 29.5334 16.7592 28.6191C15.2036 29.6508 11.7687 32.3334 10.4734 34.8095V35.4286C11.283 34.7143 13.4639 33.0572 15.7115 32.1429C14.6798 32.7302 12.1115 34.581 10.0925 37.2857L15.4734 43.1905L14.1401 36.9048L15.9973 33.2857L22.9973 45.8095L23.6163 37.5238C25.7274 35.3492 29.9496 26.5905 29.9496 8.9524ZM24.1859 30.8096C23.3969 32.1761 21.6495 32.6443 20.283 31.8553C18.9164 31.0664 18.4482 29.319 19.2372 27.9524L24.1859 30.8096Z" fill="#51C14F"/>
<path fill-rule="evenodd" clip-rule="evenodd" d="M29.9496 8.9524C29.9496 26.5905 34.1719 35.3492 36.283 37.5238L36.902 45.8095L43.902 33.2857L45.7592 36.9048L44.4258 43.1905L49.8068 37.2857C47.7877 34.581 45.2195 32.7302 44.1877 32.1429C46.4353 33.0572 48.6163 34.7143 49.4258 35.4286V34.8095C48.1306 32.3334 44.6957 29.6508 43.1401 28.6191C45.502 29.5334 48.2195 31.6667 49.283 32.6191L49.2353 31.7143C47.6353 29.1619 44.5052 26.7461 43.1401 25.8572C45.1592 26.6191 47.9496 28.7143 49.0925 29.6667L48.902 26.7619L44.5211 23.5238C41.3973 23.9048 36.3623 27.5238 34.2353 29.2857C37.6639 23 42.9973 21.5556 45.2353 21.6191L52.6639 26.8095L47.4258 15.2857V9.23812L42.7592 12.0953L41.9496 15.9524L39.5211 16.9524L37.5687 13.0476L47.1401 5.33336L48.902 7.28574L49.6163 15.2857L50.5687 14.6191V5.80955L48.9496 0.904785L36.9973 8.9524H29.9496ZM39.5669 31.8553C40.9334 31.0664 41.4016 29.319 40.6126 27.9524L35.6639 30.8096C36.4529 32.1761 38.2003 32.6443 39.5669 31.8553Z" fill="#51C14F"/>
<path d="M29.6639 35.4285L29.9496 23.381L30.2353 35.4285L31.902 37.4938L33.9496 44.6191L30.902 43.9306H28.9973L25.9496 44.6191L27.9973 37.4938L29.6639 35.4285Z" fill="#51C14F"/>
<path d="M33.9496 45.6667L32.3782 45.0953H27.4734L25.902 45.6667L26.1401 47.2857L28.6639 50.2857H31.1877L33.7115 47.2857L33.9496 45.6667Z" fill="#51C14F"/>
<path d="M14.7592 46.2857L16.1401 47.2381L16.7592 49.2381C16.5306 50 16.5687 52.7619 16.6163 54.0476C15.4734 52.2953 14.902 48.1429 14.7592 46.2857Z" fill="#51C14F"/>
<path d="M14.5211 46.1429L12.4734 44.7619C12.648 46.4921 13.2163 50.3619 14.0925 52L14.5211 52.3334C14.3623 51.1905 14.1401 48.3524 14.5211 46.1429Z" fill="#51C14F"/>
<path d="M7.66392 41.5715L12.2354 44.6667C11.8925 45.6953 12.029 48.8095 12.1401 50.2381C11.7211 49.9334 8.98138 44.3334 7.66392 41.5715Z" fill="#51C14F"/>
<path d="M36.0449 50.4762L33.7115 52L26.283 52L23.9496 50.4762L25.902 52.9048L28.7592 54.2381V59.3334L27.8068 60.3334H26.8544L17.9973 53L17.1877 50.381C17.1719 51.3016 17.3687 53.5905 18.283 55.381L29.9496 65.0476L30.0449 65.0476L41.7115 55.381C42.6258 53.5905 42.8226 51.3016 42.8068 50.381L41.9972 53L33.1401 60.3333H32.1877L31.2353 59.3333V54.2381L34.0925 52.9048L36.0449 50.4762Z" fill="#51C14F"/>
<path d="M45.2353 46.2857L43.8544 47.2381L43.2353 49.2381C43.4639 50 43.4258 52.7619 43.3782 54.0476C44.5211 52.2952 45.0925 48.1429 45.2353 46.2857Z" fill="#51C14F"/>
<path d="M45.4734 46.1429L47.5211 44.7619C47.3465 46.4921 46.7782 50.3619 45.902 52L45.4734 52.3333C45.6322 51.1905 45.8544 48.3524 45.4734 46.1429Z" fill="#51C14F"/>
<path d="M52.3306 41.5714L47.7592 44.6667C48.102 45.6952 47.9655 48.8095 47.8544 50.2381C48.2734 49.9333 51.0131 44.3333 52.3306 41.5714Z" fill="#51C14F"/>
<path fill-rule="evenodd" clip-rule="evenodd" d="M1.944 72.3602L1.008 73.4882H0V70.2002H6.168V76.8313C4.51474 77.1369 3.08488 77.4833 1.944 77.818V72.3602ZM1.944 79.6244C3.26789 78.8417 4.69697 78.2224 6.168 77.7333V79.9405C4.543 80.3863 3.11776 80.8592 1.944 81.307V79.6244ZM1.944 83.0082V83.991C3.17949 83.442 4.59857 82.8766 6.168 82.3379V80.7418C4.68438 81.3559 3.25062 82.1012 1.944 83.0082ZM1.944 87.1922V85.2491C3.26688 84.3326 4.70343 83.5581 6.168 82.9021V87.1922L0 90.6002V88.2722L1.944 87.1922ZM11.0119 87.0002V81.1285C12.5307 80.6764 13.9735 80.3296 15.2359 80.0593V87.0002H11.0119ZM15.2359 78.3585V80.0453C13.772 80.2863 12.3595 80.5815 11.0119 80.9134V79.1823C12.475 78.8236 13.9068 78.5584 15.2359 78.3585ZM17.2818 78.0878C17.5584 78.056 17.8276 78.0268 18.0883 77.9999C17.8285 78.014 17.5701 78.0299 17.313 78.0475L17.8519 77.3522L16.7944 75.9939C17.6825 75.9589 18.5178 75.9467 19.28 75.9467C18.4097 75.9045 17.5511 75.8841 16.7077 75.8826L15.2359 73.9922V75.8991C13.7664 75.9345 12.3518 76.0249 11.0119 76.1546V72.6722L9.54788 70.3922H15.2359L19.2199 75.5762L23.2039 70.3922H27.4519V87.0002H23.2039V73.9922L20.6119 77.3522L21.3559 78.3122V87.0002H17.1079V78.3122L17.2818 78.0878ZM15.2359 78.2295C13.7663 78.386 12.3526 78.5951 11.0119 78.8395V76.5605C12.4648 76.32 13.8924 76.1694 15.2359 76.0775V78.2295ZM34.5823 70.8566L34.1745 70.2002H39.8625L40.0536 70.8624C38.2886 70.8202 36.4583 70.8148 34.5823 70.8566ZM34.6067 70.896L35.1585 71.7842L30.8625 87.0002H35.0625L36.1905 83.2082L40.5585 81.4562L42.1425 87.0002H44.6385L42.8625 80.6882L44.3505 80.1122V77.8082L42.2865 78.6002L41.0957 74.4738C39.8408 74.2824 38.6571 74.1275 37.5855 73.9999C38.77 74.0999 39.9304 74.22 41.0619 74.3564L40.5532 72.5938C38.857 72.3967 37.2672 72.2598 35.869 72.1596C37.4583 72.2195 39.0092 72.3169 40.5098 72.4434L40.1107 71.0604C38.1405 70.9519 36.2747 70.9078 34.6067 70.896ZM51.1071 76.7033L52.2812 79.3682L47.7932 87.0002H50.6732L53.5292 82.1522L55.6652 87.0002H60.5612L57.1006 79.1797C55.2823 78.1866 53.232 77.3728 51.1071 76.7033ZM56.34 77.4608C54.7677 76.9903 52.905 76.4967 50.8092 76.0271L50.0606 74.3278C52.4049 74.9534 54.6754 75.7497 56.6863 76.7678L56.3132 77.4002L56.34 77.4608ZM57.985 74.5666L57.4901 75.4054C55.5812 74.8485 52.9345 74.2136 49.7618 73.6495L49.2572 72.5042L48.9532 72.0178C50.8542 72.3459 52.7306 72.7662 54.5111 73.3031L55.0892 74.6162L55.6488 73.6669C56.4539 73.9398 57.235 74.2388 57.985 74.5666ZM56.3894 72.4108C57.3994 72.5939 58.258 72.7749 58.9433 72.9424L60.5612 70.2002H56.2412L56.9852 71.4002L56.3894 72.4108ZM53.9421 72.0104C52.3558 71.776 50.5403 71.5518 48.5439 71.363L47.8172 70.2002H53.1452L53.9421 72.0104ZM39.9825 79.2962L38.6145 74.5202L36.9105 80.5202L39.9825 79.2962Z" fill="#51C14F"/>
</svg>
