<svg width="249" height="100" viewBox="0 0 249 100" fill="none" xmlns="http://www.w3.org/2000/svg">
<path d="M96.2492 66.24C94.9372 66.24 93.6812 66.056 92.4812 65.688C91.2812 65.304 90.3292 64.816 89.6252 64.224L90.7052 61.8C91.3772 62.328 92.2092 62.768 93.2012 63.12C94.1932 63.472 95.2092 63.648 96.2492 63.648C97.1292 63.648 97.8412 63.552 98.3852 63.36C98.9292 63.168 99.3292 62.912 99.5852 62.592C99.8412 62.256 99.9692 61.88 99.9692 61.464C99.9692 60.952 99.7852 60.544 99.4172 60.24C99.0492 59.92 98.5692 59.672 97.9772 59.496C97.4012 59.304 96.7532 59.128 96.0332 58.968C95.3292 58.808 94.6172 58.624 93.8972 58.416C93.1932 58.192 92.5452 57.912 91.9532 57.576C91.3772 57.224 90.9052 56.76 90.5372 56.184C90.1692 55.608 89.9852 54.872 89.9852 53.976C89.9852 53.064 90.2252 52.232 90.7052 51.48C91.2012 50.712 91.9452 50.104 92.9372 49.656C93.9452 49.192 95.2172 48.96 96.7532 48.96C97.7612 48.96 98.7612 49.088 99.7532 49.344C100.745 49.6 101.609 49.968 102.345 50.448L101.361 52.872C100.609 52.424 99.8332 52.096 99.0332 51.888C98.2332 51.664 97.4652 51.552 96.7292 51.552C95.8652 51.552 95.1612 51.656 94.6172 51.864C94.0892 52.072 93.6972 52.344 93.4412 52.68C93.2012 53.016 93.0812 53.4 93.0812 53.832C93.0812 54.344 93.2572 54.76 93.6092 55.08C93.9772 55.384 94.4492 55.624 95.0252 55.8C95.6172 55.976 96.2732 56.152 96.9932 56.328C97.7132 56.488 98.4252 56.672 99.1292 56.88C99.8492 57.088 100.497 57.36 101.073 57.696C101.665 58.032 102.137 58.488 102.489 59.064C102.857 59.64 103.041 60.368 103.041 61.248C103.041 62.144 102.793 62.976 102.297 63.744C101.817 64.496 101.073 65.104 100.065 65.568C99.0572 66.016 97.7852 66.24 96.2492 66.24ZM109.015 56.184H117.367V58.752H109.015V56.184ZM109.255 63.384H118.735V66H106.135V49.2H118.399V51.816H109.255V63.384ZM122.213 66V49.2H124.781L135.317 62.136H134.045V49.2H137.141V66H134.573L124.037 53.064H125.309V66H122.213ZM141.643 66V49.2H148.987C150.811 49.2 152.411 49.552 153.787 50.256C155.163 50.96 156.235 51.936 157.003 53.184C157.771 54.432 158.155 55.904 158.155 57.6C158.155 59.28 157.771 60.752 157.003 62.016C156.235 63.264 155.163 64.24 153.787 64.944C152.411 65.648 150.811 66 148.987 66H141.643ZM144.763 63.36H148.843C150.107 63.36 151.195 63.12 152.107 62.64C153.035 62.16 153.747 61.488 154.243 60.624C154.755 59.76 155.011 58.752 155.011 57.6C155.011 56.432 154.755 55.424 154.243 54.576C153.747 53.712 153.035 53.04 152.107 52.56C151.195 52.08 150.107 51.84 148.843 51.84H144.763V63.36Z" fill="#292929"/>
<path d="M33.4872 17H15C7.26801 17 1 23.268 1 31V84.6667C1 92.3987 7.26801 98.6667 15 98.6667H233.361C241.093 98.6667 247.361 92.3987 247.361 84.6667V31C247.361 23.268 241.093 17 233.361 17H107.937" stroke="#292929" stroke-width="2" stroke-linecap="round"/>
<path d="M83.4491 13.684L64.3935 4.15627C63.6415 3.78198 62.7923 3.64873 61.9618 3.77469C61.1313 3.90064 60.3598 4.27968 59.7526 4.86012C59.1454 5.44056 58.7319 6.19416 58.5686 7.01816C58.4054 7.84216 58.5002 8.69647 58.8402 9.4646L62.1069 16.7738C62.181 16.9505 62.2192 17.1402 62.2192 17.3318C62.2192 17.5235 62.181 17.7132 62.1069 17.8899L58.8402 25.1991C58.5635 25.8207 58.4465 26.5016 58.4999 27.18C58.5533 27.8583 58.7753 28.5126 59.1459 29.0833C59.5164 29.654 60.0237 30.123 60.6217 30.4478C61.2196 30.7726 61.8892 30.9428 62.5696 30.9429C63.207 30.9366 63.8348 30.7878 64.4071 30.5074L83.4627 20.9796C84.1386 20.6396 84.7068 20.1184 85.1038 19.4743C85.5008 18.8302 85.711 18.0885 85.711 17.3318C85.711 16.5752 85.5008 15.8334 85.1038 15.1893C84.7068 14.5452 84.1386 14.0241 83.4627 13.684H83.4491ZM82.2377 18.5432L63.1821 28.071C62.9319 28.1911 62.6509 28.2319 62.3769 28.1878C62.1028 28.1438 61.8488 28.017 61.6489 27.8244C61.4489 27.6319 61.3126 27.3828 61.2583 27.1106C61.2039 26.8384 61.234 26.5561 61.3446 26.3015L64.5977 18.9924C64.6398 18.8948 64.6762 18.7948 64.7066 18.6929H74.0846C74.4456 18.6929 74.7918 18.5495 75.0471 18.2943C75.3024 18.039 75.4458 17.6928 75.4458 17.3318C75.4458 16.9708 75.3024 16.6246 75.0471 16.3694C74.7918 16.1141 74.4456 15.9707 74.0846 15.9707H64.7066C64.6762 15.8689 64.6398 15.7689 64.5977 15.6713L61.3446 8.3621C61.234 8.10753 61.2039 7.82521 61.2583 7.55302C61.3126 7.28082 61.4489 7.03176 61.6489 6.83922C61.8488 6.64669 62.1028 6.51988 62.3769 6.47581C62.6509 6.43174 62.9319 6.47251 63.1821 6.59266L82.2377 16.1204C82.4607 16.2347 82.6478 16.4082 82.7784 16.6219C82.9091 16.8357 82.9782 17.0813 82.9782 17.3318C82.9782 17.5823 82.9091 17.828 82.7784 18.0417C82.6478 18.2555 82.4607 18.429 82.2377 18.5432Z" fill="#51C14F"/>
</svg>
