<svg width="183" height="73" viewBox="0 0 183 73" fill="none" xmlns="http://www.w3.org/2000/svg">
<path d="M61.7872 51.26C60.3658 51.26 59.0052 51.0607 57.7052 50.662C56.4052 50.246 55.3738 49.7173 54.6112 49.076L55.7812 46.45C56.5092 47.022 57.4105 47.4987 58.4852 47.88C59.5598 48.2613 60.6605 48.452 61.7872 48.452C62.7405 48.452 63.5118 48.348 64.1012 48.14C64.6905 47.932 65.1238 47.6547 65.4012 47.308C65.6785 46.944 65.8172 46.5367 65.8172 46.086C65.8172 45.5313 65.6178 45.0893 65.2192 44.76C64.8205 44.4133 64.3005 44.1447 63.6592 43.954C63.0352 43.746 62.3332 43.5553 61.5532 43.382C60.7905 43.2087 60.0192 43.0093 59.2392 42.784C58.4765 42.5413 57.7745 42.238 57.1332 41.874C56.5092 41.4927 55.9978 40.99 55.5992 40.366C55.2005 39.742 55.0012 38.9447 55.0012 37.974C55.0012 36.986 55.2612 36.0847 55.7812 35.27C56.3185 34.438 57.1245 33.7793 58.1992 33.294C59.2912 32.7913 60.6692 32.54 62.3332 32.54C63.4252 32.54 64.5085 32.6787 65.5832 32.956C66.6578 33.2333 67.5938 33.632 68.3912 34.152L67.3252 36.778C66.5105 36.2927 65.6698 35.9373 64.8032 35.712C63.9365 35.4693 63.1045 35.348 62.3072 35.348C61.3712 35.348 60.6085 35.4607 60.0192 35.686C59.4472 35.9113 59.0225 36.206 58.7452 36.57C58.4852 36.934 58.3552 37.35 58.3552 37.818C58.3552 38.3727 58.5458 38.8233 58.9272 39.17C59.3258 39.4993 59.8372 39.7593 60.4612 39.95C61.1025 40.1407 61.8132 40.3313 62.5932 40.522C63.3732 40.6953 64.1445 40.8947 64.9072 41.12C65.6872 41.3453 66.3892 41.64 67.0132 42.004C67.6545 42.368 68.1658 42.862 68.5472 43.486C68.9458 44.11 69.1452 44.8987 69.1452 45.852C69.1452 46.8227 68.8765 47.724 68.3392 48.556C67.8192 49.3707 67.0132 50.0293 65.9212 50.532C64.8292 51.0173 63.4512 51.26 61.7872 51.26ZM75.6167 40.366H84.6647V43.148H75.6167V40.366ZM75.8767 48.166H86.1467V51H72.4967V32.8H85.7827V35.634H75.8767V48.166ZM89.9147 51V32.8H92.6967L104.111 46.814H102.733V32.8H106.087V51H103.305L91.8907 36.986H93.2687V51H89.9147ZM110.964 51V32.8H118.92C120.896 32.8 122.629 33.1813 124.12 33.944C125.61 34.7067 126.772 35.764 127.604 37.116C128.436 38.468 128.852 40.0627 128.852 41.9C128.852 43.72 128.436 45.3147 127.604 46.684C126.772 48.036 125.61 49.0933 124.12 49.856C122.629 50.6187 120.896 51 118.92 51H110.964ZM114.344 48.14H118.764C120.133 48.14 121.312 47.88 122.3 47.36C123.305 46.84 124.076 46.112 124.614 45.176C125.168 44.24 125.446 43.148 125.446 41.9C125.446 40.6347 125.168 39.5427 124.614 38.624C124.076 37.688 123.305 36.96 122.3 36.44C121.312 35.92 120.133 35.66 118.764 35.66H114.344V48.14Z" fill="#292929"/>
<path d="M24.8681 12H15C7.26801 12 1 18.268 1 26V58C1 65.732 7.26801 72 15 72H168C175.732 72 182 65.732 182 58V26C182 18.268 175.732 12 168 12H79.5659" stroke="#292929" stroke-width="2" stroke-linecap="round"/>
<path d="M61.3402 9.31988L47.3402 2.31988C46.7877 2.04489 46.1639 1.94699 45.5537 2.03954C44.9435 2.13208 44.3767 2.41055 43.9306 2.837C43.4845 3.26345 43.1807 3.81711 43.0607 4.42249C42.9408 5.02788 43.0104 5.65554 43.2602 6.21988L45.6602 11.5899C45.7147 11.7197 45.7428 11.8591 45.7428 11.9999C45.7428 12.1407 45.7147 12.2801 45.6602 12.4099L43.2602 17.7799C43.0569 18.2366 42.971 18.7369 43.0102 19.2353C43.0494 19.7336 43.2126 20.2143 43.4848 20.6336C43.7571 21.0529 44.1298 21.3975 44.5691 21.6361C45.0084 21.8747 45.5003 21.9998 46.0002 21.9999C46.4685 21.9952 46.9297 21.8859 47.3502 21.6799L61.3502 14.6799C61.8468 14.4301 62.2643 14.0472 62.5559 13.574C62.8476 13.1007 63.0021 12.5558 63.0021 11.9999C63.0021 11.444 62.8476 10.899 62.5559 10.4258C62.2643 9.95258 61.8468 9.5697 61.3502 9.31988H61.3402ZM60.4502 12.8899L46.4502 19.8899C46.2664 19.9782 46.06 20.0081 45.8586 19.9757C45.6573 19.9434 45.4707 19.8502 45.3238 19.7087C45.1769 19.5673 45.0767 19.3843 45.0368 19.1843C44.9968 18.9843 45.019 18.7769 45.1002 18.5899L47.4902 13.2199C47.5212 13.1482 47.5479 13.0747 47.5702 12.9999H54.4602C54.7255 12.9999 54.9798 12.8945 55.1674 12.707C55.3549 12.5195 55.4602 12.2651 55.4602 11.9999C55.4602 11.7347 55.3549 11.4803 55.1674 11.2928C54.9798 11.1052 54.7255 10.9999 54.4602 10.9999H47.5702C47.5479 10.9251 47.5212 10.8516 47.4902 10.7799L45.1002 5.40988C45.019 5.22285 44.9968 5.01543 45.0368 4.81545C45.0767 4.61547 45.1769 4.43249 45.3238 4.29103C45.4707 4.14958 45.6573 4.05641 45.8586 4.02404C46.06 3.99166 46.2664 4.02161 46.4502 4.10988L60.4502 11.1099C60.614 11.1938 60.7515 11.3213 60.8475 11.4783C60.9435 11.6354 60.9943 11.8158 60.9943 11.9999C60.9943 12.1839 60.9435 12.3644 60.8475 12.5214C60.7515 12.6785 60.614 12.806 60.4502 12.8899Z" fill="#51C14F"/>
</svg>
