<svg width="1624" height="285" viewBox="0 0 1624 285" fill="none" xmlns="http://www.w3.org/2000/svg">
<g filter="url(#filter0_b_262_5772)">
<path d="M235.54 0.870237V55.4002L149.85 55.4002L149.85 285H85.89L85.89 55.4002L0.200001 55.4002L0.200001 0.870237L235.54 0.870237ZM440.646 285V0.870237L632.526 0.870237V54.5802L504.606 54.5802V110.34L618.176 110.34V162.82H504.606V231.29H641.956V285L440.646 285ZM1043.53 285C1040.52 275.16 1037.1 265.047 1033.28 254.66C1029.72 244.274 1026.17 233.887 1022.62 223.5H911.918C908.365 233.887 904.675 244.274 900.848 254.66C897.295 265.047 894.015 275.16 891.008 285H824.588C835.248 254.387 845.362 226.097 854.928 200.13C864.495 174.164 873.788 149.7 882.808 126.74C892.102 103.78 901.122 82.0502 909.868 61.5502C918.888 40.7769 928.182 20.5502 937.748 0.870237L998.838 0.870237C1008.13 20.5502 1017.29 40.7769 1026.31 61.5502C1035.33 82.0502 1044.35 103.78 1053.37 126.74C1062.66 149.7 1072.09 174.164 1081.66 200.13C1091.22 226.097 1101.34 254.387 1112 285H1043.53ZM966.858 65.2402C965.492 69.3402 963.442 74.9436 960.708 82.0502C957.975 89.1569 954.832 97.3569 951.278 106.65C947.725 115.944 943.762 126.194 939.388 137.4C935.288 148.607 931.052 160.36 926.678 172.66H1007.45C1003.07 160.36 998.838 148.607 994.738 137.4C990.638 126.194 986.675 115.944 982.848 106.65C979.295 97.3569 976.152 89.1569 973.418 82.0502C970.685 74.9436 968.498 69.3402 966.858 65.2402ZM1388.22 0.870237C1393.14 9.89023 1398.74 21.0969 1405.03 34.4902C1411.59 47.6102 1418.28 61.9602 1425.12 77.5402C1432.22 92.8469 1439.19 108.564 1446.03 124.69C1452.86 140.817 1459.28 155.987 1465.3 170.2C1471.31 155.987 1477.73 140.817 1484.57 124.69C1491.4 108.564 1498.23 92.8469 1505.07 77.5402C1512.17 61.9602 1518.87 47.6102 1525.16 34.4902C1531.72 21.0969 1537.46 9.89023 1542.38 0.870237L1600.6 0.870237C1603.33 19.7302 1605.79 40.9136 1607.98 64.4202C1610.44 87.6536 1612.49 111.98 1614.13 137.4C1616.04 162.547 1617.68 187.83 1619.05 213.25C1620.69 238.67 1622.05 262.587 1623.15 285H1560.83C1560.01 257.394 1558.91 227.327 1557.55 194.8C1556.18 162.274 1554.13 129.474 1551.4 96.4002C1546.48 107.88 1541.01 120.59 1535 134.53C1528.98 148.47 1522.97 162.41 1516.96 176.35C1511.22 190.29 1505.61 203.684 1500.15 216.53C1494.68 229.104 1490.03 239.9 1486.21 248.92H1441.52C1437.69 239.9 1433.04 229.104 1427.58 216.53C1422.11 203.684 1416.37 190.29 1410.36 176.35C1404.62 162.41 1398.74 148.47 1392.73 134.53C1386.71 120.59 1381.25 107.88 1376.33 96.4002C1373.59 129.474 1371.54 162.274 1370.18 194.8C1368.81 227.327 1367.72 257.394 1366.9 285H1304.58C1305.67 262.587 1306.9 238.67 1308.27 213.25C1309.91 187.83 1311.55 162.547 1313.19 137.4C1315.1 111.98 1317.15 87.6536 1319.34 64.4202C1321.8 40.9136 1324.39 19.7302 1327.13 0.870237L1388.22 0.870237Z" fill="#0D0D0D" fill-opacity="0.29"/>
</g>
<defs>
<filter id="filter0_b_262_5772" x="-19.7998" y="-19.1299" width="1662.95" height="324.13" filterUnits="userSpaceOnUse" color-interpolation-filters="sRGB">
<feFlood flood-opacity="0" result="BackgroundImageFix"/>
<feGaussianBlur in="BackgroundImageFix" stdDeviation="10"/>
<feComposite in2="SourceAlpha" operator="in" result="effect1_backgroundBlur_262_5772"/>
<feBlend mode="normal" in="SourceGraphic" in2="effect1_backgroundBlur_262_5772" result="shape"/>
</filter>
</defs>
</svg>
